HIERARCHY
ROOT Hips
{
	OFFSET 0.00000 0.00000 0.00000
	CHANNELS 6 Xposition Yposition Zposition Zrotation Yrotation Xrotation 
	JOINT LHipJoint
	{
		OFFSET 0 0 0
		CHANNELS 3 Zrotation Yrotation Xrotation
		JOINT LeftUpLeg
		{
			OFFSET 1.58895 -1.83665 0.71753
			CHANNELS 3 Zrotation Yrotation Xrotation
			JOINT LeftLeg
			{
				OFFSET 2.50528 -6.88321 0.00000
				CHANNELS 3 Zrotation Yrotation Xrotation
				JOINT LeftFoot
				{
					OFFSET 2.63244 -7.23257 0.00000
					CHANNELS 3 Zrotation Yrotation Xrotation
					JOINT LeftToeBase
					{
						OFFSET 0.23691 -0.65090 1.72750
						CHANNELS 3 Zrotation Yrotation Xrotation
						End Site
						{
							OFFSET 0.00000 -0.00000 0.92561
						}
					}
				}
			}
		}
	}
	JOINT RHipJoint
	{
		OFFSET 0 0 0
		CHANNELS 3 Zrotation Yrotation Xrotation
		JOINT RightUpLeg
		{
			OFFSET -1.51435 -1.83665 0.71753
			CHANNELS 3 Zrotation Yrotation Xrotation
			JOINT RightLeg
			{
				OFFSET -2.54551 -6.99375 0.00000
				CHANNELS 3 Zrotation Yrotation Xrotation
				JOINT RightFoot
				{
					OFFSET -2.66027 -7.30903 0.00000
					CHANNELS 3 Zrotation Yrotation Xrotation
					JOINT RightToeBase
					{
						OFFSET -0.22981 -0.63138 2.03959
						CHANNELS 3 Zrotation Yrotation Xrotation
						End Site
						{
							OFFSET -0.00000 -0.00000 1.07060
						}
					}
				}
			}
		}
	}
	JOINT LowerBack
	{
		OFFSET 0 0 0
		CHANNELS 3 Zrotation Yrotation Xrotation
		JOINT Spine
		{
			OFFSET -0.02651 1.86275 -0.11152
			CHANNELS 3 Zrotation Yrotation Xrotation
			JOINT Spine1
			{
				OFFSET 0.01019 1.86224 0.04087
				CHANNELS 3 Zrotation Yrotation Xrotation
				JOINT Neck
				{
					OFFSET 0 0 0
					CHANNELS 3 Zrotation Yrotation Xrotation
					JOINT Neck1
					{
						OFFSET -0.01926 1.80512 0.08867
						CHANNELS 3 Zrotation Yrotation Xrotation
						JOINT Head
						{
							OFFSET 0.05516 1.76451 -0.38475
							CHANNELS 3 Zrotation Yrotation Xrotation
							End Site
							{
								OFFSET 0.01592 1.82587 -0.14001
							}
						}
					}
				}
				JOINT LeftShoulder
				{
					OFFSET 0 0 0
					CHANNELS 3 Zrotation Yrotation Xrotation
					JOINT LeftArm
					{
						OFFSET 3.47116 1.51376 0.14491
						CHANNELS 3 Zrotation Yrotation Xrotation
						JOINT LeftForeArm
						{
							OFFSET 4.78095 -0.00000 0.00000
							CHANNELS 3 Zrotation Yrotation Xrotation
							JOINT LeftHand
							{
								OFFSET 3.58615 -0.00000 -0.00000
								CHANNELS 3 Zrotation Yrotation Xrotation
								JOINT LeftFingerBase
								{
									OFFSET 0 0 0
									CHANNELS 3 Zrotation Yrotation Xrotation
									JOINT LeftHandIndex1
									{
										OFFSET 0.65981 -0.00000 0.00000
										CHANNELS 3 Zrotation Yrotation Xrotation
										End Site
										{
											OFFSET 0.53196 -0.00000 0.00000
										}
									}
								}
								JOINT LThumb
								{
									OFFSET 0 0 0
									CHANNELS 3 Zrotation Yrotation Xrotation
									End Site
									{
										OFFSET 0.54008 -0.00000 0.54008
									}
								}
							}
						}
					}
				}
				JOINT RightShoulder
				{
					OFFSET 0 0 0
					CHANNELS 3 Zrotation Yrotation Xrotation
					JOINT RightArm
					{
						OFFSET -3.31725 1.61216 0.35156
						CHANNELS 3 Zrotation Yrotation Xrotation
						JOINT RightForeArm
						{
							OFFSET -4.48913 -0.00000 0.00000
							CHANNELS 3 Zrotation Yrotation Xrotation
							JOINT RightHand
							{
								OFFSET -3.70510 -0.00000 0.00000
								CHANNELS 3 Zrotation Yrotation Xrotation
								JOINT RightFingerBase
								{
									OFFSET 0 0 0
									CHANNELS 3 Zrotation Yrotation Xrotation
									JOINT RightHandIndex1
									{
										OFFSET -0.44914 -0.00000 0.00000
										CHANNELS 3 Zrotation Yrotation Xrotation
										End Site
										{
											OFFSET -0.36211 -0.00000 0.00000
										}
									}
								}
								JOINT RThumb
								{
									OFFSET 0 0 0
									CHANNELS 3 Zrotation Yrotation Xrotation
									End Site
									{
										OFFSET -0.36763 -0.00000 0.36763
									}
								}
							}
						}
					}
				}
			}
		}
	}
}
MOTION
Frames: 11
Frame Time: .0083333
-0.3150 18.4587 4.1735 -9.4505 -3.7124 14.3380 0.0000 0.0000 0.0000 -1.8160 -5.3955 -34.2469 4.5467 12.8543 38.8256 1.2329 0.0441 -21.0186 8.5290 -16.4949 -54.4465 0.0000 0.0000 0.0000 21.2242 9.1759 -19.0669 -0.6637 -5.2104 14.5096 -0.6191 -4.2825 -17.0369 -0.3164 3.6159 -9.9986 -3.6458 0.4574 26.6869 0.9881 -0.3012 9.6380 3.2619 -0.2541 -4.0187 -17.3560 -17.4349 10.9521 19.9075 -27.0345 13.9732 7.2403 -13.6938 7.7404 0.0000 -0.0000 0.0000 -81.9422 6.9914 27.6933 59.5655 -56.1930 -33.9798 -0.0000 0.0000 -16.9483 10.9213 -24.3179 -4.5431 -7.1250 0.0000 -0.0000 -11.3226 5.6683 10.3580 0.0000 -0.0000 0.0000 10.4100 71.7025 10.8408 -66.3076 57.7690 -39.6355 0.0000 -0.0000 -16.9078 44.1919 -38.7279 -31.3088 7.1250 -0.0000 -0.0000 78.2956 -53.0592 -28.7594
-0.3237 18.4634 4.1845 -9.3676 -3.5706 14.3251 0.0000 0.0000 0.0000 -1.8771 -5.4988 -34.1493 4.5223 12.8248 38.7161 1.2284 0.0823 -20.9935 8.5404 -16.5027 -54.4865 0.0000 0.0000 0.0000 21.1976 9.0174 -19.0804 -0.6666 -5.2215 14.5413 -0.6227 -4.2582 -17.0622 -0.3204 3.6385 -10.0619 -3.8313 0.4657 26.6586 1.2228 -0.3189 9.4597 3.6329 -0.2611 -4.1959 -17.5652 -17.4271 10.7731 19.8096 -27.0263 14.0580 7.2131 -13.6830 7.8112 -0.0000 0.0000 0.0000 -82.4441 6.9458 27.5153 59.3460 -56.1331 -33.7975 -0.0000 0.0000 -16.7476 10.7559 -24.3433 -4.4773 -7.1250 0.0000 -0.0000 -11.4247 5.6621 10.4566 -0.0000 0.0000 0.0000 10.2553 72.5172 8.7839 -66.8073 57.8666 -40.0584 0.0000 -0.0000 -15.4200 45.1838 -38.6093 -32.1298 7.1250 -0.0000 -0.0000 78.7556 -52.8136 -28.5882
-0.3326 18.4660 4.1959 -9.2846 -3.4612 14.3420 0.0000 0.0000 0.0000 -1.9335 -5.6112 -34.0852 4.5027 12.8009 38.6277 1.2262 0.1281 -20.9905 8.5573 -16.5142 -54.5461 0.0000 0.0000 0.0000 21.1562 8.8910 -19.1066 -0.6669 -5.2225 14.5442 -0.6262 -4.1996 -17.0646 -0.3028 3.5379 -9.7801 -3.9163 0.4715 26.5581 1.3777 -0.3176 9.3199 3.8519 -0.2580 -4.2998 -17.5757 -17.4543 10.5275 19.6281 -27.0237 14.1355 7.1284 -13.6645 7.8497 0.0000 -0.0000 0.0000 -82.7972 6.8669 27.3911 59.2132 -56.0966 -33.6872 -0.0000 0.0000 -16.5634 10.6376 -24.2387 -4.4093 -7.1250 0.0000 -0.0000 -11.4937 5.7786 10.4964 0.0000 -0.0000 0.0000 10.1641 73.2418 6.6347 -67.3481 57.9696 -40.5166 0.0000 -0.0000 -14.0272 46.4826 -38.5100 -33.2544 7.1250 -0.0000 -0.0000 79.4167 -52.5217 -28.4790
-0.3415 18.4685 4.2081 -9.2186 -3.3790 14.3469 0.0000 0.0000 0.0000 -1.9753 -5.6934 -34.0151 4.4875 12.7823 38.5588 1.2259 0.1445 -20.9931 8.5645 -16.5191 -54.5714 0.0000 0.0000 0.0000 21.1148 8.8599 -19.0850 -0.6681 -5.2273 14.5581 -0.6381 -4.1547 -17.1697 -0.2816 3.4131 -9.4311 -3.8430 0.4624 26.3195 1.4037 -0.2999 9.2585 3.8297 -0.2478 -4.2561 -17.4543 -17.4627 10.3812 19.6504 -26.9985 14.0023 7.1117 -13.6406 7.8093 -0.0000 0.0000 0.0000 -82.8211 6.7349 27.4295 59.1279 -56.0730 -33.6165 -0.0000 0.0000 -16.4798 10.5680 -24.0983 -4.3561 -7.1250 0.0000 -0.0000 -11.5319 5.9250 10.4999 -0.0000 0.0000 0.0000 10.0680 73.9235 4.3137 -67.9064 58.0728 -40.9902 0.0000 -0.0000 -13.0415 47.8754 -38.8316 -34.7357 7.1250 -0.0000 -0.0000 80.6953 -52.3928 -29.3473
-0.3490 18.4699 4.2183 -9.1892 -3.2820 14.3687 0.0000 0.0000 0.0000 -1.9741 -5.7677 -33.9831 4.4745 12.7664 38.5003 1.2245 0.1317 -20.9769 8.5543 -16.5122 -54.5355 0.0000 0.0000 0.0000 21.1069 8.8514 -19.0769 -0.6703 -5.2354 14.5812 -0.6495 -4.1502 -17.2950 -0.2772 3.3864 -9.3563 -3.7756 0.4751 26.2931 1.4552 -0.2630 9.0480 3.8387 -0.2192 -4.4808 -17.4317 -17.4436 10.3995 19.7450 -26.9793 13.8929 7.1464 -13.6327 7.7769 0.0000 0.0000 0.0000 -82.8165 6.8854 27.5618 59.2035 -56.0939 -33.6792 -0.0000 0.0000 -16.4319 10.4930 -24.0008 -4.3082 -7.1250 0.0000 -0.0000 -11.5751 6.0296 10.5172 0.0000 0.0000 0.0000 10.4995 74.5563 2.7237 -68.3711 58.1564 -41.3848 0.0000 -0.0000 -12.3340 48.9018 -39.4176 -36.0517 7.1250 -0.0000 -0.0000 82.1227 -52.4322 -30.8321
-0.3561 18.4708 4.2254 -9.1075 -3.1541 14.4322 0.0000 0.0000 0.0000 -2.0134 -5.9074 -34.0090 4.4617 12.7507 38.4422 1.2240 0.1614 -20.9825 8.5400 -16.5024 -54.4852 0.0000 0.0000 0.0000 21.0444 8.7934 -19.1589 -0.6727 -5.2449 14.6085 -0.6569 -4.1521 -17.3784 -0.2760 3.3794 -9.3368 -3.7207 0.4918 26.1234 1.4928 -0.2191 8.9294 3.8341 -0.1931 -4.5348 -17.3615 -17.4479 10.3557 19.8491 -26.9895 13.8419 7.1662 -13.6310 7.7752 -0.0000 -0.0000 0.0000 -82.8097 6.8116 27.6946 59.1547 -56.0805 -33.6387 -0.0000 0.0000 -16.3418 10.3366 -23.9934 -4.2416 -7.1250 0.0000 -0.0000 -11.6707 6.0541 10.6023 -0.0000 -0.0000 0.0000 9.6994 75.1762 0.0620 -68.4626 58.1726 -41.4625 0.0000 -0.0000 -11.6122 49.7572 -39.7797 -37.0893 7.1250 -0.0000 -0.0000 83.1435 -52.4071 -31.8018
-0.3639 18.4735 4.2315 -9.0169 -3.0277 14.5091 0.0000 0.0000 0.0000 -2.0534 -6.0497 -34.0491 4.4480 12.7338 38.3799 1.2240 0.1851 -20.9916 8.5228 -16.4906 -54.4246 0.0000 0.0000 0.0000 20.9822 8.7103 -19.2771 -0.6763 -5.2587 14.6478 -0.6622 -4.1530 -17.4386 -0.2871 3.4461 -9.5234 -3.7314 0.5210 26.0219 1.5674 -0.1750 8.7595 3.9097 -0.1650 -4.6772 -17.2989 -17.4329 10.3903 19.8125 -26.9560 13.8030 7.1580 -13.6147 7.7345 0.0000 0.0000 0.0000 -82.9113 6.7546 27.7553 59.0190 -56.0428 -33.5261 -0.0000 0.0000 -16.1862 10.1186 -23.9993 -4.1515 -7.1250 0.0000 -0.0000 -11.8045 6.0721 10.7252 0.0000 0.0000 0.0000 8.3170 75.7559 -2.9463 -68.2175 58.1290 -41.2543 0.0000 -0.0000 -10.7015 51.1100 -39.5965 -38.3156 7.1250 -0.0000 -0.0000 83.6902 -52.0860 -31.5478
-0.3727 18.4766 4.2365 -8.9822 -2.9131 14.5610 0.0000 0.0000 0.0000 -2.0351 -6.1479 -34.0569 4.4320 12.7141 38.3074 1.2209 0.1895 -20.9660 8.5191 -16.4881 -54.4116 0.0000 0.0000 0.0000 20.9951 8.6142 -19.3568 -0.6788 -5.2682 14.6750 -0.6644 -4.1537 -17.4627 -0.3130 3.5968 -9.9451 -3.7011 0.5473 25.9737 1.6313 -0.1276 8.5897 3.9497 -0.1343 -4.8462 -17.2379 -17.4242 10.4534 19.8143 -26.9211 13.6350 7.1663 -13.6032 7.6522 0.0000 0.0000 0.0000 -82.9819 6.7646 27.7828 58.9814 -56.0323 -33.4949 -0.0000 0.0000 -16.0194 9.9893 -23.9314 -4.0867 -7.1250 0.0000 -0.0000 -11.8819 6.1529 10.7799 0.0000 0.0000 0.0000 7.0919 76.2605 -5.7200 -67.9517 58.0810 -41.0286 0.0000 -0.0000 -9.9069 52.5957 -39.4479 -39.7235 7.1250 -0.0000 -0.0000 84.3449 -51.7622 -31.3887
-0.3815 18.4785 4.2419 -8.9464 -2.8006 14.5723 0.0000 0.0000 0.0000 -2.0196 -6.2919 -33.9965 4.4143 12.6922 38.2269 1.2189 0.2267 -20.9624 8.5314 -16.4966 -54.4551 0.0000 0.0000 0.0000 21.0084 8.4972 -19.3953 -0.6801 -5.2731 14.6891 -0.6667 -4.1206 -17.4676 -0.3128 3.5956 -9.9417 -3.6162 0.5833 26.0320 1.6540 -0.0609 8.4002 3.9088 -0.0914 -5.0916 -17.1762 -17.4306 10.4287 19.9068 -26.9229 13.5031 7.1873 -13.6019 7.6180 -0.0000 0.0000 0.0000 -82.9626 6.7811 27.8836 58.8946 -56.0081 -33.4229 -0.0000 0.0000 -15.8508 9.9795 -23.8073 -4.0628 -7.1250 0.0000 -0.0000 -11.8848 6.2763 10.7539 -0.0000 0.0000 0.0000 7.1676 76.8240 -7.4024 -67.2247 57.9463 -40.4120 0.0000 -0.0000 -9.1883 53.6024 -39.3447 -40.6952 7.1250 -0.0000 -0.0000 84.7735 -51.5478 -31.2724
-0.3878 18.4808 4.2512 -8.8801 -2.6847 14.6000 0.0000 0.0000 0.0000 -2.0556 -6.4287 -33.9552 4.3974 12.6712 38.1498 1.2174 0.2512 -20.9580 8.5429 -16.5044 -54.4955 0.0000 0.0000 0.0000 20.9777 8.3565 -19.4593 -0.6823 -5.2813 14.7126 -0.6697 -4.0579 -17.4618 -0.3015 3.5302 -9.7585 -3.4947 0.6269 25.9919 1.6647 0.0272 8.2647 3.8250 -0.0416 -5.2315 -17.0908 -17.5069 10.2044 19.9441 -27.0127 13.5190 7.1486 -13.6249 7.6723 0.0000 0.0000 0.0000 -82.9510 6.6568 28.0278 58.7189 -55.9588 -33.2773 -0.0000 0.0000 -15.6474 9.8983 -23.7737 -4.0238 -7.1250 0.0000 -0.0000 -11.9338 6.3181 10.7905 0.0000 0.0000 0.0000 7.5879 77.3188 -8.7828 -66.1555 57.7387 -39.5069 0.0000 -0.0000 -8.3379 54.6219 -38.7992 -41.4257 7.1250 -0.0000 -0.0000 84.5345 -51.1827 -30.0101
-0.3929 18.4830 4.2600 -8.7907 -2.5327 14.6321 0.0000 0.0000 0.0000 -2.1289 -6.5046 -33.9664 4.3825 12.6528 38.0822 1.2111 0.2243 -20.8941 8.5431 -16.5045 -54.4961 0.0000 0.0000 0.0000 20.9245 8.1992 -19.5304 -0.6850 -5.2915 14.7418 -0.6726 -4.0297 -17.4762 -0.3147 3.6062 -9.9714 -3.5120 0.6338 25.8812 1.7319 0.0416 8.1610 3.9042 -0.0311 -5.2931 -17.0581 -17.5524 10.0312 19.9224 -27.0458 13.4567 7.1130 -13.6292 7.6787 0.0000 0.0000 0.0000 -83.0947 6.6199 27.9493 58.6697 -55.9449 -33.2366 -0.0000 0.0000 -15.4331 9.6556 -23.9140 -3.9453 -7.1250 0.0000 -0.0000 -12.0860 6.2057 10.9614 0.0000 0.0000 0.0000 5.9463 77.3100 -11.2842 -66.2028 57.7481 -39.5468 0.0000 -0.0000 -8.1943 55.6979 -38.6258 -42.4590 7.1250 -0.0000 -0.0000 84.8629 -50.9458 -29.6924
